<svg width="188" height="44" fill="none" xmlns="http://www.w3.org/2000/svg"><path fill-rule="evenodd" clip-rule="evenodd" d="M47.237 32.715V3.767h16.989v3.629H50.755v8.9h12.098v3.63H50.755v9.073H65.17v3.629H47.237v.087zm35.78 0l-5.835-7.69-5.835 7.69H67.23l7.979-10.283-8.409-10.63h4.634l5.748 7.952 5.835-7.951h4.547l-7.979 10.629 7.551 10.283h-4.119zm9.782-3.111v14.258h-3.518V22.518c0-5.444 4.118-11.233 10.554-11.233 6.52 0 11.411 4.148 11.411 10.974 0 6.654-4.976 11.234-10.639 11.234-2.746 0-6.435-1.21-7.808-3.89zm14.758-7.345c0-4.666-3.003-7.43-8.323-7.172-2.574.087-6.52 1.987-6.178 8.642.086 2.16 2.317 6.22 7.208 6.22 4.204 0 7.293-2.42 7.293-7.69zm6.693 10.456V11.803h3.518v2.247c1.716-1.988 4.375-2.68 7.207-2.68v3.804c-.429-.087-4.634-.606-7.207 4.925v12.703h-3.518v-.087zm11.669-10.455c0-6.05 4.29-10.975 10.21-10.975 7.38 0 10.125 4.926 10.125 11.233v1.729H129.78c.257 3.975 3.775 6.048 7.036 5.962 2.402-.086 4.033-.777 5.75-2.505l2.316 2.42c-2.145 2.073-4.891 3.455-8.237 3.455-6.264-.086-10.726-4.753-10.726-11.32zm9.953-7.431c-3.346 0-5.92 2.936-6.092 6.135h12.785c0-3.112-2.23-6.136-6.693-6.136zm12.185 14.948l2.573-2.333c-.085 0 1.288 1.383 1.46 1.469.6.519 1.2.864 1.973 1.037 2.23.605 6.263.432 6.607-2.68.171-1.727-1.116-2.678-2.574-3.283-1.888-.69-3.948-.95-5.835-1.814-2.146-.95-3.517-2.592-3.517-5.011 0-6.31 8.922-7.346 12.955-4.408.172.173 2.145 1.987 2.06 1.987l-2.575 2.075c-1.286-1.556-2.488-2.334-5.233-2.334-1.373 0-3.261.605-3.604 2.074-.515 2.074 1.801 2.852 3.346 3.284 2.06.518 4.29.864 6.092 1.987 2.489 1.556 3.09 4.925 2.145 7.518-1.03 2.852-4.119 3.975-6.864 4.06-3.26.174-6.092-.863-8.409-3.195-.172 0-.6-.433-.6-.433zm18.104 0l2.575-2.333c-.086 0 1.286 1.383 1.458 1.469.6.519 1.202.864 1.973 1.037 2.23.605 6.265.432 6.608-2.68.17-1.727-1.116-2.678-2.575-3.283-1.888-.69-3.947-.95-5.834-1.814-2.145-.95-3.518-2.592-3.518-5.011 0-6.31 8.924-7.346 12.956-4.408.172.173 2.145 1.987 2.06 1.987l-2.574 2.075c-1.288-1.556-2.49-2.334-5.235-2.334-1.373 0-3.26.605-3.604 2.074-.514 2.074 1.802 2.852 3.346 3.284 2.06.518 4.292.864 6.093 1.987 2.488 1.556 3.09 4.925 2.145 7.518-1.03 2.852-4.118 3.975-6.865 4.06-3.26.174-6.091-.863-8.408-3.195-.172 0-.6-.433-.6-.433h-.001zm16.732-17.974V9.556h-.772v-.432h2.059v.432h-.772v2.247h-.515zm3.861 0V9.73l-.772 2.073h-.172l-.772-2.073v2.073h-.429v-2.68h.687l.686 1.817.687-1.816h.686v2.679h-.601zM23.383 32.715l-2.574-6.913h-13.9l-2.575 6.913H.645L11.8 3.767h4.032l11.07 28.948h-3.519zm-9.696-24.8L8.454 22.26H19.35L13.687 7.915zm15.531 24.8h3.604V3.768h-3.604v28.947zm9.009 0h3.604v-20.48h-3.604v20.48zm7.036-27.133v-.346c-2.745-.086-4.977-2.333-5.062-5.098h-.515c-.086 2.765-2.317 5.012-5.062 5.098v.346c2.745.086 4.976 2.333 5.062 5.098h.515c.085-2.765 2.317-5.012 5.062-5.098z" fill="#222"/></svg>