<svg width="170" height="57" fill="none" xmlns="http://www.w3.org/2000/svg"><path fill-rule="evenodd" clip-rule="evenodd" d="M62.223 24.909c.168-3.753 3.34-6.66 7.082-6.49l.101.005c3.326-.204 6.187 2.334 6.39 5.668a6.02 6.02 0 01-.005.817H62.223zm7.172-12.37c-8.98 0-12.912 6.038-14.168 11.146a17.234 17.234 0 00-.516 4.213 16.042 16.042 0 002.887 9.414 15.396 15.396 0 0012.149 5.966c4.848.177 8.087-.647 10.564-2.058.495-.322.73-.923.587-1.495v-3.92c0-.799-.481-1.176-1.174-.694a15.281 15.281 0 01-9.766 2.354c-4.038-.053-7.402-3.118-7.84-7.143h19.953c.45 0 .816-.362.823-.813.351-5.472-1.234-16.97-13.499-16.97zm-48.36 25.373h-8.768a5.409 5.409 0 01-3.11-1.095 3.46 3.46 0 01-1.467-2.894c0-1.59 1.068-4.766 6.408-4.766h6.938v8.755h-.001zm6.515-13.05c0-4.013-.891-7.062-2.818-9.168-1.924-2.106-5.798-3.154-9.39-3.154a20.315 20.315 0 00-10.27 2.742.646.646 0 00-.316.565l.27 4.425a.785.785 0 001.29.459c4.402-2.718 9.684-3.225 12.372-1.86a4.712 4.712 0 012.348 4.25v.646h-7.337C10.542 23.767.87 24.944.87 33.852v.095a8.649 8.649 0 003.134 7.154 12.369 12.369 0 007.84 2.248h14.85a.87.87 0 00.868-.87V24.826l-.012.035v.001zm73.736 12.533c-3.627 0-6.245-2.66-7.348-5.967a10.946 10.946 0 010-7.061c1.103-3.307 3.721-5.966 7.348-5.966 8.11 0 8.38 8.296 8.38 9.497 0 1.2-.27 9.497-8.38 9.497zm15.036-9.486a15.813 15.813 0 00-2.887-9.414c-5.206-6.727-14.865-7.95-21.575-2.73a15.43 15.43 0 00-2.723 2.73 16.596 16.596 0 000 18.829 14.935 14.935 0 0012.15 5.967c3.077.01 6.09-.9 8.65-2.613v3.719c0 5.048-4.402 5.966-7.22 6.142a32.977 32.977 0 01-5.798-.317c-.774-.118-1.314 0-1.314.835v4.472c.02.423.376.75.797.73h.001c6.538.565 10.94.447 14.25-1.447a10.803 10.803 0 004.824-6.155c.585-1.994.866-4.065.833-6.143V27.909h.012zm21.61-13.64V17.8a.92.92 0 01-1.175 1.001c-5.705-1.177-9.214 1.365-9.214 6.65v17.063c0 .48-.39.87-.868.87h-5.048a.869.869 0 01-.868-.87V25.085a11.78 11.78 0 013.72-8.814 13.083 13.083 0 019.238-3.743c1.182.003 2.36.113 3.521.33.599.2.693.553.693 1.46v-.048l.001-.001zM38.958 42.515c0 .48-.39.87-.869.87h-5.047a.87.87 0 01-.869-.87V.915a.87.87 0 01.857-.872h5.047c.48 0 .87.39.87.872v41.6h.011zm11.855 0c0 .48-.39.87-.868.87h-5.048a.87.87 0 01-.869-.87V.915a.87.87 0 01.869-.872h5.048a.87.87 0 01.868.872v41.6zm110.628-11.062c-1.104 3.307-3.722 5.883-7.348 5.966-3.628.083-6.245-2.66-7.337-5.966-.78-2.29-.78-4.773 0-7.061 1.104-3.307 3.721-5.885 7.337-5.967 3.615-.082 6.244 2.66 7.348 5.967a10.963 10.963 0 010 7.049v.012zm4.812-12.946c-5.206-6.726-14.865-7.948-21.575-2.73a15.492 15.492 0 00-2.722 2.73 16.024 16.024 0 00-2.888 9.415 16.017 16.017 0 002.888 9.414c5.206 6.727 14.865 7.95 21.574 2.73a15.33 15.33 0 002.723-2.73 16.04 16.04 0 002.888-9.414 16.048 16.048 0 00-2.888-9.415z" fill="#222"/></svg>