<svg width="133" height="59" fill="none" xmlns="http://www.w3.org/2000/svg"><path fill-rule="evenodd" clip-rule="evenodd" d="M40.344 23.238H28.493a.683.683 0 01-.695-.7v-1.46c-.008-.355.105-.516.323-.788l9.433-11.055H28.31a.685.685 0 01-.694-.7V7.502c.001-.4.3-.699.694-.7h11.972a.684.684 0 01.695.7V8.99c.006.268-.085.496-.299.737l-9.457 11.076h9.122a.685.685 0 01.695.701v1.033c0 .4-.3.701-.695.701h.001zm23.361.304h.003c.848-.017 1.475-.187 1.721-.464.087-.1.13-.213.118-.324-.006-.093-.006-.093-.239-1.193l-.005-.027c-.053-.287-.254-.418-.423-.418l-.022.001s-.214-.01-.424-.01h-.003c-.605-.018-1.105-.108-1.116-1V1.437c0-.312-.186-.629-.544-.639L62.666.8l-1.655.426c-.282.03-.575.232-.563.607v18.336c.003 2.173 1.16 3.37 3.257 3.375zm33.454-.304H95.68a.686.686 0 01-.696-.7v-11.24c-.025-1.9-.588-2.43-2.62-2.46-2.3 0-4.624.582-5.39.793v12.906c-.002.406-.28.701-.665.701h-1.508a.684.684 0 01-.694-.7V9.931c-.022-1.167.087-1.974 1.733-2.51 1.577-.55 4.593-1.015 6.587-1.016 3.796.005 5.42 1.387 5.424 4.618v11.513c0 .4-.3.701-.693.701h.001zM111.998 9.3a16.26 16.26 0 00-3.824-.49c-3.182.03-4.518.9-4.55 6.225.036 5.847 1.762 6.163 4.58 6.193v.124-.124a14.91 14.91 0 003.792-.516l.002-11.412zm.776 13.72l-.175.044c-.94.24-2.227.57-4.485.57h-.003c-6.217-.01-7.439-3.173-7.445-8.63.009-6.26 1.977-8.59 7.262-8.598 1.866 0 3.152.243 4.074.468l-.006-5.04c-.007-.224.092-.513.61-.613l1.652-.424h.09c.381.01.514.35.515.638v18.947c.025 1.194-.115 2.22-2.089 2.637zm12.055-1.82c-4.073-.019-4.277-2.127-4.306-6.165.029-4.059.232-6.177 4.306-6.196 4.076.02 4.28 2.137 4.308 6.193-.029 4.04-.232 6.15-4.308 6.166v.001zm0-14.794c-6.717.01-7.287 4.457-7.293 8.63.006 4.153.576 8.59 7.293 8.597h.002c6.711-.009 7.284-4.43 7.294-8.598-.008-4.36-.577-8.62-7.296-8.63v.001zm-46.56 8.716c-.674.008-3.937.06-5.239.341l-.1.023c-1.46.33-2.615.587-2.628 2.768.003 2.742 2.085 2.988 4.217 3.006l.002.123v-.123c1.336 0 2.595-.192 3.747-.567v-5.57h.001zm2.881-4.006v8.717c.03 2.17-.524 2.86-2.688 3.367-.949.198-2.401.431-3.974.433-2.32-.006-7.142-.015-7.144-5.258-.016-4.129 2.446-4.847 5.419-5.307 1.949-.315 3.93-.362 4.937-.362.272 0 .45.002.553.005v-1.474c-.01-.984-.014-1.58-.929-1.928-.56-.238-1.401-.349-2.648-.349-2.057 0-3.9.466-5.118.774l-.466.11a.918.918 0 01-.174.03.559.559 0 01-.537-.415l-.007-.026-.276-1.404v-.07c.004-.333.24-.527.462-.597.984-.37 3.582-.955 6.38-.956 2.046.001 3.522.27 4.516.82 1.7.905 1.697 2.56 1.694 3.89zm-26.996 9.577c-1.152.375-2.412.567-3.748.567v.123l-.001-.123c-2.132-.018-4.214-.264-4.217-3.006.014-2.18 1.168-2.44 2.629-2.768l.102-.023c1.299-.28 4.562-.333 5.235-.34v5.57zm1.187-13.468c-.993-.55-2.469-.818-4.514-.82-2.798.002-5.396.587-6.379.957-.223.07-.46.264-.464.596l.001.071.275 1.404.007.026a.558.558 0 00.537.414h.001a.945.945 0 00.174-.028l.465-.11c1.22-.31 3.06-.775 5.118-.775 1.248 0 2.087.111 2.65.35.913.348.917.943.929 1.927v1.474a21.619 21.619 0 00-.553-.005c-1.008 0-2.99.047-4.938.362-2.974.46-5.434 1.178-5.42 5.307.003 5.243 4.826 5.252 7.144 5.258 1.574-.002 3.026-.235 3.974-.433 2.164-.507 2.716-1.198 2.687-3.367v-8.717c.003-1.33.008-2.985-1.694-3.89zm61.162 34.746c-.03-1.13-.093-2.226-.372-3.324-.499-1.945-1.65-2.539-3.982-2.539-2.393 0-3.513.628-4.011 2.54-.28 1.066-.311 2.224-.341 3.354l8.706-.03zm2.954.22v1.535c0 .22-.216.47-.435.47h-11.195c0 1.662.341 2.601 1.056 3.385.873 1.005 2.302 1.35 4.355 1.35 1.928 0 3.172-.41 4.51-.786.063-.03.125-.03.187-.03.156 0 .248.094.34.313l.343 1.285c.032.032.032.095.032.126 0 .188-.125.315-.342.377-1.215.5-3.266.94-5.412.94-6.095 0-8.055-2.759-8.055-8.62 0-5.425 1.214-8.654 7.34-8.654 3.234 0 5.13.973 6.187 2.665.873 1.443 1.089 3.386 1.089 5.643zm-20.56 6.205s-1.741.565-3.885.565c-3.017 0-4.665-.628-4.665-6.427 0-5.392 1.4-6.427 4.633-6.427a16.7 16.7 0 013.918.501v11.788zm2.864 3.424V37.08c0-1.16-.093-2.068-2.022-2.54-1.12-.283-2.77-.658-4.976-.658-5.598 0-7.4 2.477-7.4 8.684 0 5.643 1.305 8.59 7.308 8.59 2.239 0 3.33-.29 4.327-.544l-.11.15v2.42c-.086 1.91-.967 3.4-4.318 3.4-2.48 0-3.935-.702-4.631-2.339-.1-.144-.273-.194-.473-.112l-1.494.6c-.241.096-.304.291-.22.51l-.006.006c.79 2.361 2.833 3.617 6.824 3.617 6.19 0 7.193-3.223 7.193-6.513v-.53h-.002zm-17.48-13.36v11.82c0 .28-.157.467-.466.467h-1.927c-.311 0-.5-.188-.5-.468V38.803c0-2.005-.743-2.695-2.764-2.695-2.645 0-5.351.784-5.351.784V50.28c0 .28-.155.468-.466.468h-1.93c-.31 0-.497-.188-.497-.468V37.143c0-1.224.188-1.756 1.805-2.288 1.616-.533 4.6-.973 6.593-.973 3.732 0 5.504 1.13 5.504 4.578h-.001zm-17.473-4.58h-.123l-1.993.472c-.278.03-.433.156-.433.47l.03 10.126c0 2.193-.373 4.013-4.075 4.013-3.11 0-4.074-1.225-4.074-3.95V34.323c0-.22-.091-.44-.34-.44h-.094l-2.022.44c-.25.062-.436.187-.436.47v9.97c0 4.2 1.585 6.395 6.966 6.395 6.19 0 6.935-3.136 6.935-6.428V34.322c0-.25-.094-.44-.341-.44v-.002zm-19.37 8.654c0-3.95-.186-6.427-4.415-6.427-4.2 0-4.385 2.477-4.385 6.427 0 3.92.186 6.396 4.385 6.396 4.229 0 4.415-2.477 4.415-6.396zm2.987 0c0 4.732-.778 8.622-7.402 8.622-6.593 0-7.401-3.89-7.401-8.622 0-4.766.808-8.653 7.4-8.653 6.625 0 7.403 3.887 7.403 8.653zm-16.56 6.113c-.03 0-.061.031-.121.031-.188.033-.655.126-1.09.126-.622 0-1.37-.188-1.37-1.318V28.72c0-.25-.091-.437-.34-.437h-.094l-2.021.468c-.28.034-.435.16-.435.44v18.422c0 2.352 1.305 3.45 3.388 3.45 1.246 0 2.117-.283 2.365-.408.062 0 .248-.095.248-.345v-.094l-.28-1.285c-.03-.22-.125-.284-.25-.284zM19.324 12.05l-.003.001-.192-.213c-2.794-3.089-8.59-6.825-15.15-6.825-2.055 0-3.115 5.637-3.023 10.864H.95c.11 4.617 1.14 9.043 3.185 9.043 7.84 0 16.77-7.324 16.77-9.949 0-.657-.677-1.924-1.58-2.92" fill="#222"/></svg>