<svg width="70" height="70" fill="none" xmlns="http://www.w3.org/2000/svg"><path fill-rule="evenodd" clip-rule="evenodd" d="M.174 69.916h69.65V.084H.174v69.832z" fill="#222"/><path fill-rule="evenodd" clip-rule="evenodd" d="M35 4.027C17.941 4.027 4.105 17.9 4.105 35.01c0 17.092 13.836 30.966 30.893 30.966 17.056 0 30.893-13.874 30.893-30.966.001-17.11-13.836-30.983-30.892-30.983" fill="#fff"/><path fill-rule="evenodd" clip-rule="evenodd" d="M33.079 35.869l-5.449-5.462-6.291 6.312v2.12l1.584-1.596 4.387 4.409-1.618 1.624 1.053 1.066 8.776-8.819v-2.109l-2.442 2.455zM7.617 29.253h9.715v2.102h-1.62v6.795l5.627-3.14v5.756H7.617v-2.111h1.629v-7.3H7.617v-2.102zm40.962 0v2.102h1.627v7.3h-1.627v2.111h13.73V35.01l-5.637 3.14v-6.795h1.629v-2.102h-9.722zm-21.755-6.545c1.91 0 3.46 1.544 3.46 3.458 0 1.916-1.55 3.47-3.46 3.47a3.465 3.465 0 01-3.459-3.47 3.456 3.456 0 013.46-3.458" fill="#222"/><path fill-rule="evenodd" clip-rule="evenodd" d="M43.164 29.253h-9.262v2.102h1.62v7.3h-1.62v2.11h9.262c6.848 0 6.918-11.512 0-11.512z" fill="#222"/><path fill-rule="evenodd" clip-rule="evenodd" d="M41.863 37.173h-.46v-4.345h.39c2.026 0 2.026 4.355.07 4.345z" fill="#fff"/></svg>