<svg width="191" height="26" fill="none" xmlns="http://www.w3.org/2000/svg"><path fill-rule="evenodd" clip-rule="evenodd" d="M162.098 8.833a.5.5 0 00-.383-.179h-2.596a.5.5 0 00-.49.396l-.202.98c-.576-.516-1.151-.846-1.975-1.165l-.258-.113c-.032-.011-.063-.024-.096-.03-2.818-.617-5.651.23-7.97 2.384a10.831 10.831 0 00-2.618 3.621L148.92.911a.365.365 0 00-.067-.32.375.375 0 00-.295-.143h-3.16c-.11 0-.21.045-.281.127l-13.75 15.482c.482-2.32 3.184-15.159 3.184-15.159 0-.025.007-.053.007-.077a.376.376 0 00-.374-.373h-3.49a.382.382 0 00-.285.127l-17.438 20.09c-.293-2.925-1.687-6.11-1.687-6.11-2.337-4.777-7.537-6.324-10.486-3.585l-.02.005-.463.335c2.139-3.406 7.567-3.254 11.06.756 0 0 1.553 1.862 2.654 4.632a12.88 12.88 0 00.529-3.028c-1.82-2.455-3.87-3.897-3.87-3.897-4.414-2.97-9.697-1.716-10.878 2.127l-.016.016-.228.52c.144-4.02 4.918-6.592 9.952-4.863 0 0 2.37.868 4.762 2.79a12.608 12.608 0 00-1.224-3.335c-2.79-1.205-5.264-1.429-5.264-1.429-5.313-.368-9.257 3.348-8.353 7.266l-.007.021.06.567c-1.888-3.554.956-8.16 6.18-9.177 0 0 2.427-.42 5.41.023a12.778 12.778 0 00-2.578-2.085c-2.991.35-5.223 1.383-5.223 1.383-4.783 2.328-6.337 7.517-3.59 10.462l.003.017.337.463c-3.415-2.136-3.26-7.547.756-11.033 0 0 1.877-1.56 4.67-2.666a12.662 12.662 0 00-3.551-.527c-2.335 1.772-3.697 3.697-3.697 3.697-2.977 4.405-1.72 9.673 2.131 10.853l.015.012.523.233c-4.027-.144-6.606-4.908-4.874-9.93 0 0 .798-2.166 2.558-4.443a12.913 12.913 0 00-2.855 1.12c-1.137 2.705-1.35 5.06-1.35 5.06-.37 5.3 3.358 9.235 7.286 8.336l.018.005.57-.063c-3.562 1.886-8.183-.952-9.197-6.167 0 0-.407-2.33 0-5.233a12.84 12.84 0 00-2.207 2.752c.381 2.86 1.355 4.962 1.355 4.962 2.335 4.775 7.535 6.324 10.484 3.583l.022-.004.462-.334c-2.138 3.405-7.567 3.253-11.058-.757 0 0-1.79-2.231-2.726-4.83a.502.502 0 00-.112-.332.51.51 0 00-.388-.179h-2.593a.503.503 0 00-.493.396s-.199.302-.29.896c-.576-.514-1.259-.812-1.882-1.081l-.264-.113c-.03-.011-.063-.024-.093-.03-2.818-.617-5.65.23-7.97 2.384-1.371 1.259-2.355 2.752-2.914 4.365l-.048.106 1.103-6.34a.501.501 0 00-.496-.583l-2.768.004a.502.502 0 00-.493.413l-2.86 15.556a.516.516 0 00.11.412.509.509 0 00.385.176l2.917.007a.5.5 0 00.495-.416l1.102-6.33c.012.04.022.066.022.066-.01.629.042 1.267.16 1.904.429 2.379 2.543 4.598 4.822 5.05 1.988.359 4.114-.144 6.212-1.436-.041.226-.107.567-.107.567a.5.5 0 00.107.412.5.5 0 00.388.176l2.574.007a.5.5 0 00.494-.408l2.266-12.243c1.695 2.008 3.912 3.723 3.912 3.723 4.413 2.972 9.694 1.717 10.875-2.124l.018-.017.229-.522c-.144 4.019-4.92 6.595-9.954 4.863 0 0-2.171-.796-4.458-2.552.019.083.036.169.057.254a12.851 12.851 0 001.174 2.975c2.66 1.093 4.955 1.3 4.955 1.3 5.31.37 9.255-3.349 8.353-7.268l.007-.02-.063-.569c1.89 3.554-.955 8.167-6.182 9.177 0 0-2.283.4-5.147.013a12.88 12.88 0 002.311 1.92c2.968-.359 5.166-1.379 5.166-1.379 4.785-2.327 6.341-7.517 3.594-10.459l-.006-.022-.336-.46c3.416 2.135 3.263 7.546-.754 11.033 0 0-1.916 1.587-4.748 2.695.78.263 1.584.449 2.397.556h1.158c2.379-1.79 3.767-3.756 3.767-3.756 2.98-4.405 1.724-9.675-2.13-10.852l-.015-.016-.521-.23c4.028.145 6.608 4.908 4.875 9.932 0 0-.866 2.35-2.785 4.733.154-.034.302-.066.455-.106a12.89 12.89 0 002.741-1.045c1.19-2.763 1.41-5.205 1.41-5.205.373-5.296-3.356-9.234-7.287-8.333l-.016-.004-.569.06c3.56-1.884 8.184.954 9.2 6.169 0 0 .586 2.394.147 5.23a6.323 6.323 0 01-.588 1.637c-.1.176-.225.384-.377.626l.004-.007c-.002.007-.008.012-.012.02-.004.007-.004.008-.004.014a.365.365 0 00-.02.34.361.361 0 00.341.216h1.619c.852-.004 1.583-.009 2.556.025a.392.392 0 00.301-.133l14.08-16.794c-.594 3.064-2.279 10.942-3.485 16.473-.003.027-.006.054-.006.08 0 .085.028.168.08.234.073.09.18.14.298.14l2.848-.025a.364.364 0 00.281-.13s12.629-14.737 14.245-16.62c-.673 3.076-2.517 10.846-3.831 16.313a.26.26 0 00-.014.087.37.37 0 00.082.231.375.375 0 00.296.144h3.368a.376.376 0 00.366-.287l1.458-5.901.203-.83c.007.237.01.424.01.424a9.85 9.85 0 00.163 1.904c.425 2.379 2.544 4.598 4.819 5.05 1.987.359 4.116-.144 6.213-1.436l-.107.567a.505.505 0 00.105.412c.098.113.24.176.386.176l2.576.007c.245 0 .451-.17.495-.408l2.326-12.327.557-3.322a.486.486 0 00-.117-.332h.001zM.37 24.896v-.31a.382.382 0 01.06-.09L21.234.575a.382.382 0 01.285-.128h3.358c.11 0 .216.051.29.138a.388.388 0 01.084.235.417.417 0 01-.01.077s-2.605 12.838-3.09 15.16L35.903.575a.368.368 0 01.278-.127h3.162a.368.368 0 01.363.463l-3.318 13.44c.028-.05.051-.099.077-.145 1.579-3.064 4.58-5.218 7.827-5.614.01-.003.023-.003.036-.003 2.937-.148 5.204.96 6.563 3.2l.022.036c.488.978.852 2.293.917 3.646.555-1.613 1.54-3.106 2.91-4.365 2.32-2.154 5.15-3.001 7.971-2.384a.67.67 0 01.093.03l.262.113c.626.269 1.307.567 1.883 1.081.305-1.431 1.2-5.678 1.2-5.678a.503.503 0 01.49-.396h2.595c.15 0 .29.067.386.178a.511.511 0 01.11.412l-3.785 20.352a.5.5 0 01-.493.408l-2.575-.007a.507.507 0 01-.389-.176.501.501 0 01-.106-.412s.065-.341.106-.567c-2.098 1.292-4.221 1.795-6.211 1.435-2.277-.451-4.394-2.67-4.822-5.049a10.091 10.091 0 01-.162-1.904.508.508 0 01-.336.13l-11.95.005a.641.641 0 00-.02.145c0 .182.064.42.146.69l.051.175c.567 1.39 1.928 2.262 3.472 2.225 1.535-.035 2.957-.768 4.221-2.177a.492.492 0 01.371-.167h2.664c.172 0 .334.088.423.234a.502.502 0 01.033.482c-1.513 3.172-4.904 5.302-8.463 5.302-2.477-.096-4.555-1.298-5.712-3.308-.576-1.071-.849-2.4-.833-3.762l-1.563 6.333a.378.378 0 01-.367.287h-3.37a.367.367 0 01-.292-.144.36.36 0 01-.084-.23c0-.032.005-.059.01-.088 1.317-5.467 3.162-13.237 3.832-16.312l-14.243 16.62a.365.365 0 01-.281.129l-2.847.025a.375.375 0 01-.378-.375c0-.025 0-.052.007-.079 1.205-5.531 2.89-13.41 3.483-16.473L5.187 25.003a.388.388 0 01-.3.133 57.515 57.515 0 00-2.556-.025H.71a.368.368 0 01-.34-.215zm157.097-7.564c-.583 2.032-2.51 3.967-4.395 4.423-1.442.19-2.498.055-3.23-.42-.777-.532-1.167-1.455-1.468-2.287a5.414 5.414 0 01-.08-.891c0-1.851.994-3.635 2.822-5.002 1.047-.732 2.476-1.01 3.726-.724.705.163 1.673.581 2.275 1.67.335.591.516 1.34.516 2.07 0 .404-.056.8-.166 1.161zM40.131 14.997l7.743-.073c-.06-.553-.352-1.07-.964-1.682-.675-.577-1.6-.848-2.915-.855-1.424.198-3.087 1.132-3.864 2.61zm23.95 2.335c.11-.361.163-.757.163-1.16 0-.731-.178-1.48-.514-2.07-.607-1.09-1.57-1.508-2.278-1.67a4.822 4.822 0 00-3.728.723c-1.823 1.367-2.818 3.15-2.818 5.002 0 .293.028.593.08.891.301.832.69 1.755 1.466 2.287.736.475 1.794.61 3.231.42 1.884-.456 3.811-2.391 4.398-4.423zm6.308-13.064l-.605 3.272a.514.514 0 00.108.417.507.507 0 00.388.178h2.92a.5.5 0 00.493-.41l.549-3.243a.521.521 0 00-.109-.41.506.506 0 00-.38-.181l-2.871-.025a.5.5 0 00-.493.402zm14.233 13.064c-.585 2.032-2.514 3.967-4.396 4.423-1.44.19-2.496.055-3.232-.42-.776-.532-1.164-1.455-1.465-2.287a5.205 5.205 0 01-.08-.891c0-1.851.993-3.635 2.82-5.002a4.824 4.824 0 013.727-.724c.706.163 1.671.581 2.275 1.67.337.591.517 1.34.517 2.07 0 .404-.057.8-.166 1.161zm95.976 6.441l-4.81-7.704c.39-.459 4.483-5.434 5.314-6.409l-.368 1.929a.5.5 0 00.494.592h1.275c-.145.88-1.479 8.987-1.905 11.592zM166.596 9.605l.057-.36a.501.501 0 00-.105-.41.507.507 0 00-.384-.18h-2.598a.499.499 0 00-.496.404l-.073.392-2.776 15.134a.508.508 0 00.515.587l1.282-.019h1.205c.24 0 .44-.167.487-.398l1.905-9.392c.629-2.38 2.21-3.089 3.608-3.295.075-.01.357-.006.417-.044-.958 5.694-2.092 12.436-2.113 12.55a.5.5 0 00.492.579h2.797c.219 0 .414-.14.476-.35.09-.274.759-4.144 1.16-6.469 1.036 1.567 4.345 6.59 4.345 6.59.093.14.25.224.417.224l3.344.005a.563.563 0 00.173-.032c.071.032.15.054.228.051l2.823-.019a.497.497 0 00.489-.41l2.18-12.556 3.24-.005c.243 0 .45-.175.493-.413l.436-2.534a.389.389 0 00.009-.085.506.506 0 00-.116-.318.502.502 0 00-.385-.177h-3.193c.156-.896.724-4.2.724-4.2a.485.485 0 00-.11-.405.49.49 0 00-.381-.177h-2.807a.5.5 0 00-.492.412s-.624 3.693-.74 4.37c-.254.008-.515.013-.515.013l-.438.003-.465-.008a.499.499 0 00-.43.23.495.495 0 00-.412-.225l-2.569-.005h-.751a.512.512 0 00-.369.16s-2.584 2.954-3.956 4.437c.401-2.35 1.508-8.797 1.508-8.797a.485.485 0 00-.113-.405.487.487 0 00-.38-.179l-2.795-.006a.496.496 0 00-.496.411c-.065.385-.355 2.1-.744 4.387l-.013-.02a.49.49 0 00-.393-.17c-1.19.035-2.265.521-3.202 1.124z" fill="#222"/></svg>