<svg width="185" height="30" fill="none" xmlns="http://www.w3.org/2000/svg"><path fill-rule="evenodd" clip-rule="evenodd" d="M92.116 29.316c6.202 0 10.334-4.009 10.334-10.774V1.235h-6.784V18.27c0 3.15-1.135 4.71-3.514 4.71-2.296 0-3.28-1.597-3.28-4.71V1.235h-6.82v17.307c.01 6.915 3.786 10.774 10.062 10.774h.002zm20.405-15.325h-1.246v-6.57h1.79c3.007 0 4.45.935 4.45 3.225-.01 2.486-1.64 3.345-4.994 3.345zm8.104-11.242c-1.874-1.318-4.094-1.514-7.017-1.514h-9.2v27.651h6.782v-8.905h1.95c2.885 0 5.068-.197 6.83-1.243 2.763-1.672 4.403-4.625 4.403-8.205 0-3.467-1.283-6.074-3.748-7.784zm41.261 10.737l10.334 15.401h5.959V1.235h-6.773v15.363L161.221 1.235h-6.118v27.652h6.783V13.486zM66.07 22.55c-3.823 0-7.29-3.345-7.29-7.7 0-4.046 3.233-7.269 7.374-7.269 3.898 0 7.14 3.223 7.14 7.27-.01 4.504-3.242 7.7-7.224 7.7v-.001zm9.94-17.736C73.32 2.17 69.817.731 66.107.731c-3.935 0-7.373 1.364-10.1 4.046-2.726 2.681-4.216 6.186-4.216 9.998 0 4.084 1.33 7.504 3.936 10.271 2.725 2.878 6.239 4.354 10.333 4.354 3.86 0 7.524-1.513 10.212-4.316 2.615-2.683 4.02-6.225 4.02-10.186.01-3.786-1.471-7.327-4.282-10.084zm63.53 17.736c-3.822 0-7.289-3.345-7.289-7.7 0-4.046 3.242-7.269 7.373-7.269 3.898 0 7.14 3.223 7.14 7.27-.01 4.504-3.251 7.7-7.224 7.7v-.001zm9.94-17.736c-2.688-2.644-6.202-4.083-9.902-4.083-3.945 0-7.373 1.364-10.1 4.046-2.727 2.681-4.216 6.186-4.216 9.998 0 4.084 1.33 7.504 3.934 10.271 2.737 2.878 6.24 4.354 10.335 4.354 3.86 0 7.523-1.513 10.212-4.316 2.614-2.683 4.02-6.225 4.02-10.186.01-3.786-1.472-7.327-4.282-10.084h-.001zM4.581 25.036c2.726 2.878 6.203 4.393 10.297 4.393 4.72 0 9.163-2.337 11.814-6.187 1.602-2.337 2.38-4.981 2.38-8.092 0-.58-.038-1.206-.075-1.833H13.2v5.523h7.917c-1.37 2.412-3.664 3.738-6.24 3.738-3.823 0-7.252-3.382-7.252-7.784 0-3.971 3.195-7.27 7.252-7.27 2.183 0 3.972.898 5.696 2.683h7.72C26.074 4.291 20.884.674 14.962.674c-3.935 0-7.365 1.402-10.1 4.084C2.136 7.441.656 10.945.656 14.757c-.01 4.093 1.31 7.513 3.925 10.28v-.001zm34.31-11.045h-1.322v-6.57h1.874c2.998 0 4.44.935 4.44 3.225 0 2.486-1.64 3.345-4.992 3.345zm5.574 5.401c3.935-1.093 6.278-4.43 6.278-8.905 0-3.42-1.285-6.028-3.748-7.738-1.874-1.318-4.094-1.514-7.018-1.514h-9.2v27.651h6.783v-8.905l5.303 8.905h8.385l-6.783-9.494zM180.99 1.375a1.74 1.74 0 011.274-.532c.496 0 .927.178 1.274.532.347.347.525.776.525 1.27 0 .497-.178.927-.525 1.282a1.71 1.71 0 01-1.274.532c-.497 0-.928-.178-1.274-.532a1.757 1.757 0 01-.525-1.281c0-.495.169-.915.525-1.27v-.001zm1.264 3.365c.582 0 1.078-.206 1.48-.617.413-.411.61-.907.61-1.477 0-.58-.206-1.065-.61-1.468a2.023 2.023 0 00-1.48-.606c-.571 0-1.068.205-1.47.606a1.99 1.99 0 00-.61 1.468c0 .579.207 1.075.61 1.477.402.41.89.617 1.47.617z" fill="#222"/><path fill-rule="evenodd" clip-rule="evenodd" d="M182.573 2.543c-.084.038-.216.048-.384.048h-.365V1.76h.346c.225 0 .385.028.487.084.103.056.15.168.15.336 0 .187-.084.31-.234.364zm.609 1.206a.3.3 0 01-.019-.12c0-.057-.01-.122-.01-.169v-.17a.625.625 0 00-.121-.355.565.565 0 00-.393-.224.706.706 0 00.328-.112c.15-.093.225-.252.225-.448 0-.29-.122-.486-.357-.579-.131-.057-.336-.085-.628-.085h-.805v2.29h.403V2.88h.318c.216 0 .366.028.45.075.15.084.216.262.216.523v.178l.009.074v.03c0 .008 0 .017.01.017h.374V3.75z" fill="#222"/></svg>