<svg width="40" height="41" fill="none" xmlns="http://www.w3.org/2000/svg"><path stroke="#000" stroke-width="2" d="M1 1.906h38v38H1z"/><g clip-path="url(#clip0)"><path d="M15.03 28.781h-3.733V18.266h3.733v10.515zm-1.868-11.95c-1.194 0-2.162-.864-2.162-1.908s.968-1.892 2.162-1.892c1.193 0 2.161.848 2.161 1.892s-.968 1.909-2.161 1.909zM29 28.782h-3.725v-5.118c0-1.22-.028-2.785-1.94-2.785-1.94 0-2.238 1.325-2.238 2.697v5.206h-3.729V18.266h3.58V19.7H21c.499-.826 1.716-1.698 3.532-1.698 3.777 0 4.472 2.177 4.472 5.003v5.776H29z" fill="#000"/></g><defs><clipPath id="clip0"><path fill="#fff" transform="translate(11 11.906)" d="M0 0h18v18H0z"/></clipPath></defs></svg>