<svg width="90" height="58" fill="none" xmlns="http://www.w3.org/2000/svg"><path fill-rule="evenodd" clip-rule="evenodd" d="M81.704 0H8.036c-.306 0-.613 0-.92.002-.258.002-.516.004-.775.012-.564.015-1.131.048-1.688.15a5.427 5.427 0 00-2.971 1.534c-.4.405-.736.87-.991 1.38a5.726 5.726 0 00-.529 1.619A11.45 11.45 0 00.013 6.4c-.007.26-.01.521-.012.781V50.8c.002.26.005.521.012.782.015.568.049 1.14.15 1.702.1.57.266 1.102.528 1.62a5.406 5.406 0 002.357 2.38 5.68 5.68 0 001.605.534c.557.1 1.124.134 1.688.15.259.006.517.009.775.01.307.003.614.003.92.003h73.668c.306 0 .614 0 .92-.002.258-.002.516-.005.776-.011.562-.016 1.13-.05 1.687-.15a5.663 5.663 0 001.604-.534 5.394 5.394 0 002.359-2.381 5.687 5.687 0 00.527-1.62 11.4 11.4 0 00.15-1.7c.007-.262.01-.523.011-.783.002-.31.002-.62.002-.93V8.112c0-.31 0-.62-.002-.93-.002-.26-.004-.52-.011-.781a11.45 11.45 0 00-.15-1.703 5.505 5.505 0 00-1.519-2.999A5.414 5.414 0 0086.691.698a5.673 5.673 0 00-1.604-.534C84.53.064 83.962.03 83.4.014c-.26-.007-.518-.01-.776-.011C82.318 0 82.01 0 81.704 0z" fill="#222"/><path fill-rule="evenodd" clip-rule="evenodd" d="M81.704 1.933l.907.001c.244.002.49.005.736.012.43.011.933.035 1.4.12.407.073.749.186 1.077.354a3.51 3.51 0 011.52 1.536c.166.328.276.67.35 1.085.083.467.106.976.118 1.412.007.245.01.492.011.744.002.305.002.61.002.914v41.76c0 .304 0 .61-.002.92a36.32 36.32 0 01-.01.738c-.013.436-.036.944-.12 1.416a3.79 3.79 0 01-.35 1.081 3.481 3.481 0 01-1.522 1.536 3.72 3.72 0 01-1.07.353c-.478.086-1 .11-1.394.12-.248.006-.495.01-.748.01-.302.003-.603.003-.905.003H8.025c-.298 0-.597 0-.9-.002a35.157 35.157 0 01-.733-.01 9.722 9.722 0 01-1.4-.12 3.728 3.728 0 01-1.077-.356 3.476 3.476 0 01-1.518-1.534 3.783 3.783 0 01-.35-1.086 9.622 9.622 0 01-.12-1.41c-.006-.248-.01-.495-.011-.742l-.001-.726V7.194c.002-.247.006-.494.012-.742.012-.433.035-.94.12-1.415.072-.41.184-.753.35-1.084a3.492 3.492 0 011.52-1.533c.326-.168.668-.28 1.075-.354.468-.085.97-.109 1.402-.12.244-.007.49-.01.733-.012h74.577z" fill="#FEFEFE"/><path fill-rule="evenodd" clip-rule="evenodd" d="M23.59 19.572c.76-.96 1.276-2.25 1.14-3.567-1.114.055-2.473.74-3.26 1.702-.706.823-1.331 2.167-1.168 3.429 1.25.11 2.499-.63 3.287-1.564h.001zm1.125 1.81c-1.815-.11-3.359 1.04-4.226 1.04s-2.194-.984-3.63-.958c-1.87.028-3.604 1.094-4.552 2.79-1.95 3.394-.515 8.427 1.382 11.19.921 1.368 2.031 2.873 3.494 2.82 1.383-.055 1.924-.904 3.604-.904 1.68 0 2.168.903 3.63.876 1.518-.027 2.467-1.368 3.388-2.736 1.056-1.56 1.49-3.064 1.516-3.147-.027-.027-2.925-1.15-2.952-4.514-.028-2.818 2.275-4.158 2.383-4.242-1.3-1.94-3.332-2.16-4.037-2.214zm13.635 7.026h3.62c2.749 0 4.313-1.494 4.313-4.082 0-2.59-1.564-4.068-4.298-4.068h-3.636v8.15h.001zm4.467-10.838c3.946 0 6.694 2.745 6.694 6.74 0 4.012-2.805 6.77-6.793 6.77H38.35v7.013h-3.157V17.57h7.625-.001zm17.06 14.948v-1.152l-3.51.227c-1.972.128-3.001.868-3.001 2.162 0 1.252 1.071 2.063 2.748 2.063 2.143 0 3.763-1.38 3.763-3.3zm-9.583 1.323c0-2.632 1.987-4.14 5.65-4.367l3.933-.242v-1.137c0-1.664-1.085-2.575-3.016-2.575-1.593 0-2.748.825-2.987 2.09h-2.847c.084-2.66 2.564-4.592 5.92-4.592 3.606 0 5.96 1.905 5.96 4.863v10.212h-2.918v-2.46h-.07c-.832 1.607-2.664 2.617-4.65 2.617-2.931 0-4.975-1.764-4.975-4.41zm15.295 9.742v-2.46c.197.028.676.057.93.057 1.395 0 2.184-.597 2.663-2.134l.282-.91-5.34-14.934h3.297l3.72 12.117h.07l3.72-12.117h3.214L72.607 38.89c-1.269 3.598-2.72 4.779-5.792 4.779-.24 0-1.015-.03-1.226-.086z" fill="#222"/></svg>