<svg width="91" height="58" fill="none" xmlns="http://www.w3.org/2000/svg"><path d="M82.806.02H7.212c-.262.003-.524.006-.786.013a11.27 11.27 0 00-1.71.15A5.79 5.79 0 003.09.716a5.492 5.492 0 00-1.385 1c-.405.405-.746.87-1.006 1.38a5.701 5.701 0 00-.535 1.618 11.164 11.164 0 00-.15 1.701c-.008.261-.011.522-.013.782L0 8.127v41.736l.001.93c.002.26.005.52.012.78.016.568.05 1.141.151 1.702.102.57.27 1.101.535 1.619.26.51.6.974 1.006 1.378.406.404.874.743 1.385 1 .52.265 1.053.432 1.626.535.563.1 1.14.134 1.71.15.262.006.524.01.786.01.31.003.622.003.933.003h74.66c.311 0 .623 0 .933-.003.262 0 .524-.004.787-.01.57-.016 1.145-.05 1.71-.15a5.813 5.813 0 001.626-.534 5.462 5.462 0 002.39-2.38 5.67 5.67 0 00.535-1.618c.102-.56.135-1.134.15-1.701.008-.26.011-.521.013-.782.002-.31.002-.619.002-.929V8.126c0-.31 0-.62-.002-.929-.002-.26-.005-.52-.012-.782a11.424 11.424 0 00-.15-1.701 5.699 5.699 0 00-.536-1.619 5.466 5.466 0 00-2.39-2.379 5.768 5.768 0 00-1.626-.533 11.292 11.292 0 00-1.71-.15c-.263-.007-.525-.01-.787-.012-.31-.002-.622-.002-.932-.002" fill="#222"/><path d="M82.806 1.95l.919.002c.248.002.497.005.747.012.435.011.945.035 1.42.12.411.073.758.186 1.09.354a3.518 3.518 0 011.54 1.535c.168.328.28.67.355 1.084.084.468.108.976.12 1.412a92.824 92.824 0 01.013 1.657v41.737c0 .305 0 .61-.002.92-.001.246-.004.492-.012.739a9.529 9.529 0 01-.12 1.415c-.074.408-.186.75-.355 1.08a3.48 3.48 0 01-1.543 1.535c-.33.168-.675.28-1.083.353a9.797 9.797 0 01-1.414.12c-.251.006-.501.01-.758.01-.305.003-.612.003-.917.003H8.133c-.302 0-.605 0-.912-.002-.25-.001-.5-.005-.742-.01a9.843 9.843 0 01-1.42-.12 3.82 3.82 0 01-1.091-.356 3.437 3.437 0 01-.891-.645 3.456 3.456 0 01-.648-.888 3.779 3.779 0 01-.355-1.085 9.502 9.502 0 01-.121-1.41c-.007-.247-.01-.495-.011-.74l-.001-.727V7.21c.003-.248.005-.495.012-.742.012-.433.036-.939.122-1.415.073-.408.186-.752.355-1.083.167-.327.385-.626.648-.887.262-.262.562-.478.893-.646a3.82 3.82 0 011.088-.353 9.616 9.616 0 011.42-.12c.249-.007.498-.01.744-.012l.922-.001h74.66" fill="#FFFFFE"/><path d="M43.787 30.333v8.26h-2.59V18.202h6.872a6.129 6.129 0 014.441 1.775 5.928 5.928 0 01.29 8.324l-.29.293c-1.207 1.154-2.688 1.74-4.442 1.74h-4.281v-.001zm0-9.626v7.122h4.346c.966.032 1.9-.358 2.559-1.057 1.352-1.415 1.32-3.69-.08-5.057a3.519 3.519 0 00-2.48-1.008h-4.345zm16.562 3.48c1.915 0 3.428.52 4.538 1.544 1.111 1.025 1.658 2.455 1.658 4.26v8.601h-2.478v-1.935h-.113c-1.078 1.594-2.495 2.39-4.281 2.39-1.513 0-2.8-.455-3.815-1.365a4.336 4.336 0 01-1.529-3.415c0-1.447.548-2.585 1.626-3.447 1.078-.861 2.527-1.284 4.33-1.284 1.544 0 2.8.293 3.798.845v-.601a3.07 3.07 0 00-1.063-2.325 3.743 3.743 0 00-2.494-.96c-1.449 0-2.591.618-3.428 1.854l-2.286-1.447c1.223-1.805 3.074-2.715 5.537-2.715zM57 34.316c0 .683.322 1.317.853 1.707.58.455 1.288.7 2.012.683 1.094 0 2.14-.439 2.913-1.22.853-.812 1.288-1.772 1.288-2.877-.805-.65-1.932-.976-3.38-.96-1.046 0-1.932.26-2.64.765-.692.504-1.046 1.138-1.046 1.902zm23.773-9.674l-8.659 20.08h-2.672l3.219-7.024-5.681-13.056h2.816L73.9 34.657h.049l4.007-10.015h2.817z" fill="#5F6368"/><path d="M33.31 28.544c0-.797-.064-1.593-.193-2.374H22.19v4.504h6.261a5.42 5.42 0 01-2.318 3.56v2.927h3.734c2.19-2.032 3.445-5.04 3.445-8.617h-.002z" fill="#4285F4"/><path d="M22.19 39.99c3.121 0 5.761-1.04 7.676-2.829l-3.734-2.926c-1.046.715-2.382 1.121-3.943 1.121-3.026 0-5.585-2.064-6.502-4.828H11.84v3.024a11.565 11.565 0 0010.35 6.438z" fill="#34A853"/><path d="M15.687 30.528a7.131 7.131 0 010-4.488v-3.008H11.84a11.71 11.71 0 000 10.503l3.847-3.007z" fill="#FBBC04"/><path d="M22.19 21.211a6.205 6.205 0 014.441 1.756l3.316-3.349a11.121 11.121 0 00-7.758-3.04c-4.378 0-8.385 2.503-10.349 6.454l3.847 3.024c.917-2.78 3.476-4.845 6.502-4.845h.001z" fill="#EA4335"/></svg>